<?xml version="1.0" encoding="UTF-8"?>
<!DOCTYPE svg PUBLIC "-//W3C//DTD SVG 1.1//EN" "http://www.w3.org/Graphics/SVG/1.1/DTD/svg11.dtd">
<!-- Creator: CorelDRAW (Evaluation Version) -->
<svg xmlns="http://www.w3.org/2000/svg" xml:space="preserve" width="1.45833in" height="0.729165in" version="1.1" style="shape-rendering:geometricPrecision; text-rendering:geometricPrecision; image-rendering:optimizeQuality; fill-rule:evenodd; clip-rule:evenodd"
viewBox="0 0 1458.33 729.17"
 xmlns:xlink="http://www.w3.org/1999/xlink"
 xmlns:xodm="http://www.corel.com/coreldraw/odm/2003">
 <defs>
  <style type="text/css">
   <![CDATA[
    .fil1 {fill:#9F8054}
    .fil0 {fill:#242526;fill-rule:nonzero}
    .animate-start {
  animation-name: startAnimation;
  animation-duration: 2s; /* Adjust the duration as needed */
  animation-timing-function: ease-in-out;
  animation-iteration-count: infinite;
  animation-direction: alternate;
}

.animate-close {
  animation-name: closeAnimation;
  animation-duration: 2s; /* Adjust the duration as needed */
  animation-timing-function: ease-in-out;
  animation-iteration-count: infinite;
  animation-direction: alternate;
}
@keyframes startAnimation {
  0% {
    transform: translateX(0);
  }
  50% {
    transform: translateX(200px); /* Adjust the distance between polygons */
  }
  100% {
    transform: translateX(0);
  }
}

@keyframes closeAnimation {
  0% {
    transform: translateX(0);
  }
  50% {
    transform: translateX(-200px); /* Adjust the distance between polygons */
  }
  100% {
    transform: translateX(0);
  }
}


   ]]>

   
  </style>
 </defs>
 <g id="Layer_x0020_1">
  <metadata id="CorelCorpID_0Corel-Layer"/>
  <g id="_2228942013440">
  
  <path class="fil0" d="M1259.52 493.59l-41.78 0 0 70.56 41.78 0c14.49,0 25.89,-3.01 34.22,-9 8.36,-6 12.55,-14.7 12.55,-26.16 0,-11.22 -4.23,-19.93 -12.70,-26.13 -8.44,-6.17 -19.79,-9.28 -34.06,-9.28l0 0.01zm-369.13 -31.08l-69.35 101.07 86.17 108.72 -48.97 0 -60.01 -76.78 -54.17 76.78 -31.02 0 0 -209.78 40.54 0 0 137.85 89.14 -137.85 47.68 0 -0.02 0zm-207.8 0l0 31.65 -80.75 0 0 178.13 -40.54 0 0 -178.13 -80.76 0 0 -31.65 202.06 0 -0.01 0zm-276 -3.74l112.28 213.55 -44.22 0 -18.81 -37.93 -0.43 0 -14.39 -29.41 0.86 0 -35.94 -72.91 -0.29 0.59 -0.55 -1.13 -55.17 115.12 -12.76 25.64 -44.17 0 112.28 -213.55 1.30 0 -0.01 0.02zm-214 0c32 0 58.8 7.41 80.48 22.26l-21.4 29.45c-17.3 -12.56 -37.09 -18.85 -59.41 -18.85 -12.33 0 -21.98 2.34 -29.03 7 -7.01 4.64 -10.54 11.62 -10.54 20.89 0 7.81 3.46 13.76 10.38 17.85 6.92 4.08 19.98 7.69 39.19 11.27 29.28 5.46 49.9 13.18 62 22.74 12.11 9.57 18.11 22.66 18.11 39.31 0 19.79 -7.83 35.63 -23.51 47.53 -15.68 11.89 -36.93 17.84 -63.73 17.84 -36.33 0 -66.11 -9.14 -89.47 -27.46l22 -29.68c8.21 7.41 18.59 13.33 31.02 17.70 12.48 4.39 25.03 6.56 37.73 6.56 14.11 0 25.24 -2.57 33.30 -7.67 8.11 -5.13 12.10 -12.37 12.10 -21.74 0 -7.85 -3.79 -14 -11.45 -18.56 -7.68 -4.56 -20.89 -8.50 -39.69 -11.99 -29.04 -5.39 -49.41 -13.12 -61.19 -22.93 -11.78 -9.79 -17.67 -22.78 -17.67 -38.97 0 -18.66 7.41 -33.77 22.28 -45.30 14.81 -11.50 34.33 -17.28 58.49 -17.28l-0 0.02zm851.02 0l112.28 213.55 -44.22 0c-23.4 -47.17 -45.39 -92.96 -68.7 -140.22l-0.14 0.28 -0.40 -0.81c-22.69 47.35 -44.86 93.78 -68.23 140.78l-44.17 0 112.28 -213.55 1.3 0 0 -0.02zm219.43 3.74c24.27 0 44.43 5.90 60.44 17.70 16 11.8 23.94 28.07 23.94 48.77 0 14.52 -4.17 26.89 -12.48 37.16 -8.32 10.27 -22.59 18.22 -42.77 23.88l66.66 82.27 -47.36 0 -94.22 -104.96 0.48 27.88 0 77.08 -40.22 0 0 -209.78 85.52 0 0 0z"/>

   <polygon class="fil1 animate-start" points="742.8,-12.94 742.8,346.93 790.71,371.69 1192.22,371.69 1192.22,352.45 872.03,298.14 872.03,125.75 "/>
   <polygon class="fil1 animate-close" points="721.7,-12.94 721.7,346.93 673.79,371.69 272.28,371.69 272.28,352.45 592.48,298.14 592.48,125.75 "/>
  </g>
 </g>
</svg>
